<svg width="20" height="20" viewBox="0 0 20 20" fill="none" xmlns="http://www.w3.org/2000/svg">
<path fill-rule="evenodd" clip-rule="evenodd" d="M4.62478 4.63247L2.18383 5.00014L2 3.77966L5.66142 3.22817L6.21291 6.88958L4.99244 7.07341L4.62478 4.63247Z" fill="#707276"/>
<path fill-rule="evenodd" clip-rule="evenodd" d="M5.50026 3.53116C3.4548 4.96007 2.11682 7.33198 2.11682 10.0164C2.11682 14.3825 5.6562 17.9218 10.0223 17.9218C14.3883 17.9218 17.9277 14.3825 17.9277 10.0164C17.9277 5.66297 14.4087 2.13144 10.0601 2.11105L10.0351 3.11098C13.8429 3.11789 16.9277 6.2069 16.9277 10.0164C16.9277 13.8302 13.836 16.9218 10.0223 16.9218C6.20849 16.9218 3.11682 13.8302 3.11682 10.0164C3.11682 7.82671 4.136 5.87507 5.72586 4.60995L5.50026 4.61576V3.99864V3.53116Z" fill="#707276"/>
<path d="M1.6492 16.7664L1.29332 17.1176L1.64454 17.4735L2.5115 18.352L2.86272 18.7078L3.21859 18.3566L18.2986 3.47419L18.6545 3.12298L18.3033 2.7671L17.4363 1.88863L17.0851 1.53275L16.7292 1.88397L1.6492 16.7664Z" fill="#707276" stroke="white"/>
</svg>
